<?xml version="1.0" encoding="utf-8"?>
<!-- Generator: Adobe Illustrator 21.0.0, SVG Export Plug-In . SVG Version: 6.00 Build 0)  -->
<svg version="1.1" id="Calque_1" xmlns="http://www.w3.org/2000/svg" xmlns:xlink="http://www.w3.org/1999/xlink" x="0px" y="0px"
	 viewBox="0 0 1080 628" style="enable-background:new 0 0 1080 628;" xml:space="preserve">
<style type="text/css">
	.st0{fill:none;}
	.st1{display:none;}
	.st2{font-family:'Cubic';}
	.st3{font-size:180px;}
	.st4{fill:#FF7E08;}
	.st5{fill:#2A2B0F;}
	.st6{fill:#FBD625;}
	.st7{fill:#AF1C1C;}
	.st8{fill:#2F1ED3;}
</style>
<rect x="68" y="237" class="st0" width="856" height="434"/>
<text transform="matrix(1 0 0 1 68 386.9385)" class="st1 st2 st3">BeeBox</text>
<path class="st4" d="M11,163.7L274.6,8l263.6,155.7v303.5L274.6,619L11,463.3V163.7z M34.9,448.5l240.1,137.9L515,448.5V177.8
	L274.9,39.8L34.9,177.8V448.5z"/>
<path class="st5" d="M61,206l35,17l1,67l30-17l66,38v76l-66,38l-66-37.7V206z M80,322v53l47,27l46-26v-54l-46-27L80,322z"/>
<path class="st6" d="M783,224l35,17l1,67l30-17l66,38v76l-66,38l-66-37.7V224z M802,340v53l47,27l46-26v-54l-46-27L802,340z"/>
<polygon class="st6" points="259.9,358.5 343,310 277,273 211,311 211,387 277,425 343,387 323,375 277,403 230,376 230,322 
	278,295 304,310 258,337 230,322 230,342 "/>
<polygon class="st6" points="407.9,358.5 491,310 425,273 359,311 359,387 425,425 491,387 471,375 425,403 378,376 378,322 
	426,295 452,310 406,337 378,322 378,342 "/>
<path class="st7" d="M757.5,313.5"/>
<line class="st8" x1="944" y1="312" x2="901" y2="387"/>
<path class="st5" d="M903.9,224.4c-0.1,4,7.3,43.1,29.2,52.5c21.9,9.4-0.8-11-3.8-13.1c-3-2-11.8-12.2-10.6-22.2s4.2-9.9,8.1-8.9
	c4,1.1,22.1-6.6,21.3-20.7s0.2-15-6-1.1c-6.2,13.9-19.2,14.7-26.2,9.6C909.1,215.4,903.9,224.4,903.9,224.4z"/>
<path class="st4" d="M918.1,212.6c4.6-4.5,34.3-20.5,27.6-37.6s-4.8-13.1-10.9-5.2c-6.1,7.9-22.4,26.6-27.3,19.6
	c-4.9-7.1-6.9-8.1-8.9-5.1c-2,3-4.1,4.9-1.1,9c2.9,4-2.2,10-5.2,10.9c-3,1-6,0.9,0.9,7C900.1,217.3,903.9,226.4,918.1,212.6z"/>
<path class="st5" d="M896.7,176.2c3-3,24.4-21.6,26.4-25.6s6.2-10.9-1.7-16c-7.9-5.1-20.8-10.3-25.8-10.4c-5-0.1,2,3,3.9,4.1
	c2,1,2.9,6-2.2,10c-5.1,3.9-27.4,27.6-28.5,28.5s-5,0.9-9-1.1s-11-1.2-10.1,3.8c0.9,5-0.2,15-0.3,19c-0.1,4,0.9,7,2.9,9
	c2,2-2.1,4-2.1,5c0,1-5.2,11.9-4.4,22.9c0.8,11,0.8,11,9.7,16.2c8.9,5.1,21.8,12.4,25.8,12.4c4,0.1,7-2.9,0.1-5
	c-7-2.1-18.9-7.3-20.7-16.3c-1.9-9-3.9-9.1-0.7-16c3.1-7,4.2-14.9,2.3-19c-1.9-4-1.8-12,0.2-11c2,1,5.9,4.1,7.9,5.1
	c2,1,5,0.1,11-2.8c6-2.9,8.1-4.9,11.1-4.8c3,0,2-2,3.1-5C896.7,176.2,896.7,176.2,896.7,176.2z"/>
<path class="st4" d="M930.2,148.8c0,1,4.8,11.1,6.8,11.1c2,0,1-3,0.1-5C936.1,152.9,930.2,144.8,930.2,148.8z"/>
<path class="st5" d="M948.3,141.1c3,1,13,0.2,18-1.7c5-1.9,19.1-6.7,23.2-10.6c4.1-3.9,3.1-9,0.1-9c-3,0-3.1,4-5.1,4.9
	c-2,1-5.1,5.9-9.1,4.9c-4-1.1-21.9-4.4-23.9-5.4c-2-1-4,2.9,0.9,4c5,1.1,24.9,4.4,15.9,7.3s-22.1,3.6-20.1,4.7
	C950.3,141.1,948.3,141.1,948.3,141.1z"/>
<path class="st5" d="M945.7,117c2-1,9-2.9,15-0.8s29,2.5,16-0.7c-13-3.2-22.9-4.4-16.9-6.3c6-1.9,18-0.7,18-0.7l-2-2
	c0,0-16-0.3-19,0.7s-3.1,4-5.1,3.9s-14-0.2-18,0.7c-4,0.9-16.1,4.7-5.1,4.9c11,0.2,14,2.2,14.9,3.2c1,1,2,1,2-1
	C945.7,117,945.7,117,945.7,117z"/>
<path class="st5" d="M983.8,109.6c4,1.1,9,3.1,8.9,4.1s2-2,0-3c-2-1-2.9-4-3.9-5.1c-1-1-3-2-4-0.1s-4.1,5.9-2.1,5
	C984.8,109.6,983.8,109.6,983.8,109.6z"/>
<path class="st5" d="M997.7,114.9c2,2,6,3.1,2.9,5s-4.1,3.9,0,3s9.1-3.9,12.1-8.8c3.1-5,6.1-8.9,3.1-9c-3,0-7-0.1-6,1.9
	c1,2,2.9,7-0.1,8C1006.7,116,994.8,111.8,997.7,114.9z"/>
<path class="st4" d="M1019.9,102.2c1-2,5.1-4.9,0.1-7c-5-2.1-15.9-8.3-27.9-8.4c-12-0.2-40.1,3.4-46.1,4.3c-6,0.9-40.1,6.4-45.1,8.3
	c-5,1.9-22.1,4.6-24.1,5.6s-0.1,4,2.9,6s2.9,6,18.9,5.3s26.1-5.6,32.1-7.5c6-1.9,26.1-8.6,33.2-9.5s19,1.3,22,2.4c3,1,4-0.9,7-0.9
	c3,0,9.9,4.2,10.9,4.2s4,2.1,4-0.9c0-3-3.9-5.1-0.9-6c3-1,7-2.9,9-0.9c2,2,1.9,7,2.9,6C1019.9,102.2,1019.9,102.2,1019.9,102.2z"/>
<path class="st5" d="M892.3,78.2c3.2-3.1,43.4-27.3,48.5-29.2c5-1.9,16.1-5.7,20.1-5.7c4,0.1,20.1-4.7,23.1-3.6c3,1,5.9,4.1,4.9,9.1
	c-1.1,5-1.2,11-3.2,14.9c-2.1,4-2.1,7-4.1,6.9s-2-1-3-2c-1-1-4-1.1-5-1.1s0-1,3-3s11.1-4.8,6.1-7.9c-5-3.1-9-3.1-12-3.2
	c-3,0-5-1.1-1-3c4-1.9,8,0.1,9,1.1c1,1,5.9,4.1,6,1.1c0-3,0.2-10-1.9-9c-2,1-2.1,4-4,2.9c-2-1-2.9-4-6-3.1c-3,1-6-0.1-8,2.9
	c-2,3-4.1,4.9-3.1,7c1,2,1,3-1.1,4c-2,1-2-1-5-1.1c-3,0-10.1,3.8-13.1,5.8s-45.4,27.3-48.5,28.2S884,98,883.9,99s-5,2.9-6,0.9
	c-1-2-1-3-4-3.1c-3,0-9-1.1-4.9-4.1C873.1,89.9,891.3,79.1,892.3,78.2z"/>
<path class="st4" d="M888,97.1c2-2,26.2-12.6,31.2-14.5c5-1.9,20.1-5.7,23.1-6.6c3-1,9-0.9-1,3c-10.1,3.8-16.1,6.7-17.1,8.7
	c-1,2,0-1-2-2c-2-1-30.2,13.5-32.2,13.5C887.9,99.1,887,98.1,888,97.1z"/>
<path class="st4" d="M963.5,64.3c2,0,4,0.1,2,1s-7,0.9-7-1.1c0-2,0-3,2-2C962.5,63.3,963.5,64.3,963.5,64.3z"/>
<path class="st4" d="M955.4,72.2c3,0,6,3.1,7,3.1s5-1.9,2-3c-3-1-4-1.1-6-1.1C956.4,71.2,955.4,72.2,955.4,72.2z"/>
<path class="st4" d="M937.4,73.9c2-1,6-2.9,6.1-3.9s-1-1-4-0.1c-3,1-7,1.9-8,2.9s2,3,4,2.1C937.4,73.9,937.4,73.9,937.4,73.9z"/>
<path class="st4" d="M880.5,129c0-3,0.1-8-2.8-12c-2.9-4-16.7-17.3-20.7-19.3c-4-2.1-15.9-7.3-25.9-5.4S820,94,819.9,99
	c-0.1,5-1.1,5,4,3.1c5-1.9,7-2.9,10-2.8c3,0,18,0.3,22.9,5.4c4.9,5.1,3.9,7.1,2.9,7s-1.1,6-0.1,7s-1.1,8-3.2,10
	c-2,2-10.2,9.8-12.2,9.8c-2,0-8,0.9-13-3.2s-12.8-13.2-14.8-10.2c-2,3-10.3,15.8-7.3,19.9c2.9,4,3.9,8.1,7.9,8.1c4,0.1,4,0.1,6,2.1
	c2,2,7.9,4.1,8.9,6.1c1,2,4,3.1,4,1.1s4-0.9,6-1.9c2-1,4,1.1,6,1.1s2-1,3-2s2-2,3-2c1,0,2,2,2,1c0-1-3-2,0.1-4s16.1-8.7,17.2-11.7
	C874.3,139.9,880.4,132,880.5,129z"/>
<path class="st5" d="M830.9,166.2c3,0,11,2.2,4.9,4.1c-6,1.9-28.1,4.5-30.1,6.5s-6.2,11.9-3.3,17.9c2.9,6,0.9,6,1.9,7
	c1,1,13.9,9.2,13.9,9.2s9.9,9.2-1.1,4c-10.9-5.2-23.8-13.4-24.8-15.4c-1-2-0.9-5-0.9-8c0-3-0.8-13,6.3-18.9s9.1-6.9,14.1-6.8
	C816.9,166,829.9,166.2,830.9,166.2z"/>
<path class="st5" d="M816,92.9c-0.7-3.5-7.8-10.1-12.8-10.2s-17-0.3-18,1.7c-1,2-6.1,6.9-7.1,7.9s-2,2-4-1.1
	c-2-3-10.8-11.2-12.8-12.2c-2-1-3,0-5,0.9c-2,1-11.2,9.8-12.2,10.8s-2.1,6,4,2.1c6.1-3.9,8.1-5.9,10.1-6.8s2-3,5,1.1
	c2.9,4,7.9,8.1,7.9,9.1s2.9,4,0.9,4c-2,0-11-3.2-13-3.2s-8-0.1-9,1.9s-7.2,12.9-7.2,14.9c0,2-0.1,8,3,3c3.1-5,6.2-10.9,7.2-11.9
	s3.1-4,5-2.9c2,1,9,2.1,10,2.2s4,1.1,4,3.1c0,2-0.3,18,0.7,21c1,3,1.8,10,4.8,14.1s5.8,12.1,15.9,6.3c10.1-5.8,10.1-6.8,14.2-13.8
	c4.1-6.9,7.2-14.9,7.3-16.9C814.7,115.9,817.9,102,816,92.9z"/>
<polygon class="st6" points="981.9,376.5 1065,328 999,291 933,329 933,405 999,443 1065,405 1045,393 999,421 952,394 952,340 
	1000,313 1026,328 980,355 952,340 952,360 "/>
<polygon class="st5" points="743,441 553,227 651,163 734,239 587,359 595,397 640,418 758,334 753,372 644,451 567,415 553,349 
	695,238 649,196 591,231 784,443 "/>
</svg>
